<svg xmlns="http://www.w3.org/2000/svg" width="1200" height="800"><path d="M755,914L690,924L1043,948Z" fill="#dedfe0" stroke="#dedfe0" stroke-width="1.51"/><path d="M766,-114L1048,-150L1153,-200Z" fill="#efeff0" stroke="#efeff0" stroke-width="1.51"/><path d="M614,-128L766,-114L1153,-200Z" fill="#f0f1f1" stroke="#f0f1f1" stroke-width="1.51"/><path d="M247,-193L614,-128L1153,-200Z" fill="#f3f3f4" stroke="#f3f3f4" stroke-width="1.51"/><path d="M397,969L-52,995L1158,985Z" fill="#e2e2e3" stroke="#e2e2e3" stroke-width="1.51"/><path d="M1043,948L690,924L1158,985Z" fill="#dcddde" stroke="#dcddde" stroke-width="1.51"/><path d="M690,924L397,969L1158,985Z" fill="#dfdfe0" stroke="#dfdfe0" stroke-width="1.51"/><path d="M1316,72L1336,138L1353,-61Z" fill="#e7e8e8" stroke="#e7e8e8" stroke-width="1.51"/><path d="M1153,-200L1289,-119L1364,-126Z" fill="#ebecec" stroke="#ebecec" stroke-width="1.51"/><path d="M1397,739L1290,807L1409,867Z" fill="#dadbdc" stroke="#dadbdc" stroke-width="1.51"/><path d="M1353,-61L1336,138L1427,322Z" fill="#e5e6e7" stroke="#e5e6e7" stroke-width="1.51"/><path d="M1336,138L1349,242L1427,322Z" fill="#e4e4e5" stroke="#e4e4e5" stroke-width="1.51"/><path d="M1364,-126L1353,-61L1427,322Z" fill="#e7e7e8" stroke="#e7e7e8" stroke-width="1.51"/><path d="M1285,373L1366,464L1427,322Z" fill="#e1e2e3" stroke="#e1e2e3" stroke-width="1.51"/><path d="M1244,646L1397,739L1437,587Z" fill="#ddddde" stroke="#ddddde" stroke-width="1.51"/><path d="M1280,556L1244,646L1437,587Z" fill="#dedfe0" stroke="#dedfe0" stroke-width="1.51"/><path d="M1366,464L1280,556L1437,587Z" fill="#dfdfe0" stroke="#dfdfe0" stroke-width="1.51"/><path d="M1409,867L1399,993L1437,587Z" fill="#d9dadb" stroke="#d9dadb" stroke-width="1.51"/><path d="M1427,322L1366,464L1437,587Z" fill="#dfe0e1" stroke="#dfe0e1" stroke-width="1.51"/><path d="M1397,739L1409,867L1437,587Z" fill="#dbdcdd" stroke="#dbdcdd" stroke-width="1.51"/><path d="M1262,905L1399,993L1409,867Z" fill="#d8d9da" stroke="#d8d9da" stroke-width="1.51"/><path d="M1349,242L1285,373L1427,322Z" fill="#e2e3e4" stroke="#e2e3e4" stroke-width="1.51"/><path d="M1290,807L1262,905L1409,867Z" fill="#dadbdb" stroke="#dadbdb" stroke-width="1.51"/><path d="M1244,646L1290,807L1397,739Z" fill="#dcddde" stroke="#dcddde" stroke-width="1.51"/><path d="M1262,905L1158,985L1399,993Z" fill="#d8d9da" stroke="#d8d9da" stroke-width="1.51"/><path d="M906,912L755,914L1043,948Z" fill="#dededf" stroke="#dededf" stroke-width="1.51"/><path d="M1336,138L1271,186L1349,242Z" fill="#e5e6e6" stroke="#e5e6e6" stroke-width="1.51"/><path d="M1230,-46L1316,72L1353,-61Z" fill="#e8e9ea" stroke="#e8e9ea" stroke-width="1.51"/><path d="M1289,-119L1353,-61L1364,-126Z" fill="#eaeaeb" stroke="#eaeaeb" stroke-width="1.51"/><path d="M1285,373L1208,443L1366,464Z" fill="#e1e2e3" stroke="#e1e2e3" stroke-width="1.51"/><path d="M1208,443L1280,556L1366,464Z" fill="#e0e1e2" stroke="#e0e1e2" stroke-width="1.51"/><path d="M1271,186L1285,373L1349,242Z" fill="#e4e4e5" stroke="#e4e4e5" stroke-width="1.51"/><path d="M1289,-119L1230,-46L1353,-61Z" fill="#eaebeb" stroke="#eaebeb" stroke-width="1.51"/><path d="M1316,72L1271,186L1336,138Z" fill="#e6e7e7" stroke="#e6e7e7" stroke-width="1.51"/><path d="M1271,186L1164,168L1285,373Z" fill="#e5e6e6" stroke="#e5e6e6" stroke-width="1.51"/><path d="M1164,168L1137,394L1285,373Z" fill="#e4e5e6" stroke="#e4e5e6" stroke-width="1.51"/><path d="M1244,646L1168,788L1290,807Z" fill="#ddddde" stroke="#ddddde" stroke-width="1.51"/><path d="M1230,-46L1173,31L1316,72Z" fill="#e9eaea" stroke="#e9eaea" stroke-width="1.51"/><path d="M1173,31L1180,90L1316,72Z" fill="#e8e9e9" stroke="#e8e9e9" stroke-width="1.51"/><path d="M1180,90L1271,186L1316,72Z" fill="#e7e7e8" stroke="#e7e7e8" stroke-width="1.51"/><path d="M1168,788L1262,905L1290,807Z" fill="#dcdcdd" stroke="#dcdcdd" stroke-width="1.51"/><path d="M1180,90L1164,168L1271,186Z" fill="#e7e8e8" stroke="#e7e8e8" stroke-width="1.51"/><path d="M1153,-200L1230,-46L1289,-119Z" fill="#ebecec" stroke="#ebecec" stroke-width="1.51"/><path d="M1137,394L1208,443L1285,373Z" fill="#e3e3e4" stroke="#e3e3e4" stroke-width="1.51"/><path d="M1141,649L1244,646L1280,556Z" fill="#dfe0e0" stroke="#dfe0e0" stroke-width="1.51"/><path d="M1115,626L1141,649L1280,556Z" fill="#dfe0e1" stroke="#dfe0e1" stroke-width="1.51"/><path d="M1208,443L1115,483L1280,556Z" fill="#e1e2e2" stroke="#e1e2e2" stroke-width="1.51"/><path d="M1115,483L1115,626L1280,556Z" fill="#e0e1e2" stroke="#e0e1e2" stroke-width="1.51"/><path d="M1141,649L1168,788L1244,646Z" fill="#dedfe0" stroke="#dedfe0" stroke-width="1.51"/><path d="M1053,339L1137,394L1164,168Z" fill="#e6e6e7" stroke="#e6e6e7" stroke-width="1.51"/><path d="M1168,788L1158,985L1262,905Z" fill="#dbdcdc" stroke="#dbdcdc" stroke-width="1.51"/><path d="M1153,-200L1044,-76L1230,-46Z" fill="#eceded" stroke="#eceded" stroke-width="1.51"/><path d="M1041,872L1158,985L1168,788Z" fill="#dcdcdd" stroke="#dcdcdd" stroke-width="1.51"/><path d="M1044,-76L1173,31L1230,-46Z" fill="#ebebec" stroke="#ebebec" stroke-width="1.51"/><path d="M766,-114L893,-101L1048,-150Z" fill="#eff0f0" stroke="#eff0f0" stroke-width="1.51"/><path d="M1048,-150L1044,-76L1153,-200Z" fill="#eeeeee" stroke="#eeeeee" stroke-width="1.51"/><path d="M1137,394L1115,483L1208,443Z" fill="#e3e4e4" stroke="#e3e4e4" stroke-width="1.51"/><path d="M1041,872L1043,948L1158,985Z" fill="#dbdcdd" stroke="#dbdcdd" stroke-width="1.51"/><path d="M976,250L1053,339L1164,168Z" fill="#e7e8e8" stroke="#e7e8e8" stroke-width="1.51"/><path d="M1141,649L1028,744L1168,788Z" fill="#dedfe0" stroke="#dedfe0" stroke-width="1.51"/><path d="M1173,31L1050,111L1180,90Z" fill="#e9eaea" stroke="#e9eaea" stroke-width="1.51"/><path d="M1050,111L1164,168L1180,90Z" fill="#e8e9e9" stroke="#e8e9e9" stroke-width="1.51"/><path d="M1115,483L1032,578L1115,626Z" fill="#e1e2e3" stroke="#e1e2e3" stroke-width="1.51"/><path d="M1050,111L976,250L1164,168Z" fill="#e8e9ea" stroke="#e8e9ea" stroke-width="1.51"/><path d="M1044,-76L1050,111L1173,31Z" fill="#eaebec" stroke="#eaebec" stroke-width="1.51"/><path d="M1028,744L1041,872L1168,788Z" fill="#dedfdf" stroke="#dedfdf" stroke-width="1.51"/><path d="M1059,409L1115,483L1137,394Z" fill="#e3e4e5" stroke="#e3e4e5" stroke-width="1.51"/><path d="M1115,626L1028,744L1141,649Z" fill="#dfe0e1" stroke="#dfe0e1" stroke-width="1.51"/><path d="M1053,339L1059,409L1137,394Z" fill="#e5e5e6" stroke="#e5e5e6" stroke-width="1.51"/><path d="M1059,409L1032,578L1115,483Z" fill="#e3e4e4" stroke="#e3e4e4" stroke-width="1.51"/><path d="M1032,578L1028,744L1115,626Z" fill="#e0e1e2" stroke="#e0e1e2" stroke-width="1.51"/><path d="M907,672L1028,744L1032,578Z" fill="#e1e2e2" stroke="#e1e2e2" stroke-width="1.51"/><path d="M920,210L976,250L1050,111Z" fill="#e9eaea" stroke="#e9eaea" stroke-width="1.51"/><path d="M1044,-76L872,10L1050,111Z" fill="#eceded" stroke="#eceded" stroke-width="1.51"/><path d="M872,10L896,118L1050,111Z" fill="#ebecec" stroke="#ebecec" stroke-width="1.51"/><path d="M954,543L1032,578L1059,409Z" fill="#e3e4e5" stroke="#e3e4e5" stroke-width="1.51"/><path d="M1053,339L911,399L1059,409Z" fill="#e5e6e7" stroke="#e5e6e7" stroke-width="1.51"/><path d="M911,399L954,543L1059,409Z" fill="#e5e5e6" stroke="#e5e5e6" stroke-width="1.51"/><path d="M1028,744L874,767L1041,872Z" fill="#dfe0e1" stroke="#dfe0e1" stroke-width="1.51"/><path d="M893,-101L872,10L1044,-76Z" fill="#eeeeef" stroke="#eeeeef" stroke-width="1.51"/><path d="M893,-101L1044,-76L1048,-150Z" fill="#eeeeef" stroke="#eeeeef" stroke-width="1.51"/><path d="M896,118L920,210L1050,111Z" fill="#eaeaeb" stroke="#eaeaeb" stroke-width="1.51"/><path d="M976,250L911,399L1053,339Z" fill="#e7e7e8" stroke="#e7e7e8" stroke-width="1.51"/><path d="M874,767L906,912L1041,872Z" fill="#dedfe0" stroke="#dedfe0" stroke-width="1.51"/><path d="M1041,872L906,912L1043,948Z" fill="#ddddde" stroke="#ddddde" stroke-width="1.51"/><path d="M954,543L907,672L1032,578Z" fill="#e2e3e4" stroke="#e2e3e4" stroke-width="1.51"/><path d="M907,672L874,767L1028,744Z" fill="#e0e1e2" stroke="#e0e1e2" stroke-width="1.51"/><path d="M911,399L845,447L954,543Z" fill="#e5e6e6" stroke="#e5e6e6" stroke-width="1.51"/><path d="M920,210L911,399L976,250Z" fill="#e8e9e9" stroke="#e8e9e9" stroke-width="1.51"/><path d="M874,767L818,833L906,912Z" fill="#dfe0e1" stroke="#dfe0e1" stroke-width="1.51"/><path d="M823,399L911,399L920,210Z" fill="#e8e8e9" stroke="#e8e8e9" stroke-width="1.51"/><path d="M813,197L823,399L920,210Z" fill="#e9eaeb" stroke="#e9eaeb" stroke-width="1.51"/><path d="M825,543L907,672L954,543Z" fill="#e4e4e5" stroke="#e4e4e5" stroke-width="1.51"/><path d="M845,447L825,543L954,543Z" fill="#e5e5e6" stroke="#e5e5e6" stroke-width="1.51"/><path d="M835,6L872,10L893,-101Z" fill="#eeefef" stroke="#eeefef" stroke-width="1.51"/><path d="M825,717L874,767L907,672Z" fill="#e1e2e3" stroke="#e1e2e3" stroke-width="1.51"/><path d="M896,118L813,197L920,210Z" fill="#ebebec" stroke="#ebebec" stroke-width="1.51"/><path d="M872,10L835,6L896,118Z" fill="#ededee" stroke="#ededee" stroke-width="1.51"/><path d="M825,543L825,717L907,672Z" fill="#e3e4e4" stroke="#e3e4e4" stroke-width="1.51"/><path d="M823,399L845,447L911,399Z" fill="#e7e7e8" stroke="#e7e7e8" stroke-width="1.51"/><path d="M818,833L755,914L906,912Z" fill="#dfe0e1" stroke="#dfe0e1" stroke-width="1.51"/><path d="M766,-114L835,6L893,-101Z" fill="#eff0f0" stroke="#eff0f0" stroke-width="1.51"/><path d="M835,6L720,152L896,118Z" fill="#ededed" stroke="#ededed" stroke-width="1.51"/><path d="M720,152L813,197L896,118Z" fill="#ececec" stroke="#ececec" stroke-width="1.51"/><path d="M670,248L708,389L813,197Z" fill="#ebebeb" stroke="#ebebeb" stroke-width="1.51"/><path d="M813,197L708,389L823,399Z" fill="#e9eaea" stroke="#e9eaea" stroke-width="1.51"/><path d="M825,717L818,833L874,767Z" fill="#e1e1e2" stroke="#e1e1e2" stroke-width="1.51"/><path d="M825,543L639,615L825,717Z" fill="#e4e5e6" stroke="#e4e5e6" stroke-width="1.51"/><path d="M639,615L634,675L825,717Z" fill="#e4e5e6" stroke="#e4e5e6" stroke-width="1.51"/><path d="M731,486L825,543L845,447Z" fill="#e6e7e7" stroke="#e6e7e7" stroke-width="1.51"/><path d="M823,399L731,486L845,447Z" fill="#e7e7e8" stroke="#e7e7e8" stroke-width="1.51"/><path d="M636,807L818,833L825,717Z" fill="#e1e2e3" stroke="#e1e2e3" stroke-width="1.51"/><path d="M766,-114L685,-66L835,6Z" fill="#f0f0f1" stroke="#f0f0f1" stroke-width="1.51"/><path d="M685,-66L720,152L835,6Z" fill="#efefef" stroke="#efefef" stroke-width="1.51"/><path d="M575,897L397,969L690,924Z" fill="#e1e2e3" stroke="#e1e2e3" stroke-width="1.51"/><path d="M685,-66L674,141L720,152Z" fill="#eeefef" stroke="#eeefef" stroke-width="1.51"/><path d="M708,389L731,486L823,399Z" fill="#e8e8e9" stroke="#e8e8e9" stroke-width="1.51"/><path d="M731,486L639,615L825,543Z" fill="#e6e7e7" stroke="#e6e7e7" stroke-width="1.51"/><path d="M634,675L636,807L825,717Z" fill="#e3e4e5" stroke="#e3e4e5" stroke-width="1.51"/><path d="M720,152L670,248L813,197Z" fill="#eceded" stroke="#eceded" stroke-width="1.51"/><path d="M636,807L755,914L818,833Z" fill="#e1e2e2" stroke="#e1e2e2" stroke-width="1.51"/><path d="M708,389L681,431L731,486Z" fill="#e9e9e9" stroke="#e9e9e9" stroke-width="1.51"/><path d="M636,807L690,924L755,914Z" fill="#e1e2e2" stroke="#e1e2e2" stroke-width="1.51"/><path d="M614,-128L685,-66L766,-114Z" fill="#f2f2f2" stroke="#f2f2f2" stroke-width="1.51"/><path d="M247,-193L492,-89L614,-128Z" fill="#f5f5f6" stroke="#f5f5f6" stroke-width="1.51"/><path d="M543,534L639,615L681,431Z" fill="#e8e8e9" stroke="#e8e8e9" stroke-width="1.51"/><path d="M570,134L674,141L685,-66Z" fill="#eff0f0" stroke="#eff0f0" stroke-width="1.51"/><path d="M549,-64L570,134L685,-66Z" fill="#f1f1f1" stroke="#f1f1f1" stroke-width="1.51"/><path d="M674,141L670,248L720,152Z" fill="#ededee" stroke="#ededee" stroke-width="1.51"/><path d="M681,431L639,615L731,486Z" fill="#e8e8e8" stroke="#e8e8e8" stroke-width="1.51"/><path d="M670,248L514,361L708,389Z" fill="#ebebec" stroke="#ebebec" stroke-width="1.51"/><path d="M247,-193L404,-92L492,-89Z" fill="#f6f6f6" stroke="#f6f6f6" stroke-width="1.51"/><path d="M636,807L575,897L690,924Z" fill="#e2e2e3" stroke="#e2e2e3" stroke-width="1.51"/><path d="M514,361L681,431L708,389Z" fill="#eaeaeb" stroke="#eaeaeb" stroke-width="1.51"/><path d="M570,134L670,248L674,141Z" fill="#edeeee" stroke="#edeeee" stroke-width="1.51"/><path d="M514,361L518,409L681,431Z" fill="#eaebeb" stroke="#eaebeb" stroke-width="1.51"/><path d="M518,409L543,534L681,431Z" fill="#e9eaea" stroke="#e9eaea" stroke-width="1.51"/><path d="M614,-128L549,-64L685,-66Z" fill="#f2f2f3" stroke="#f2f2f3" stroke-width="1.51"/><path d="M634,675L581,673L636,807Z" fill="#e5e5e6" stroke="#e5e5e6" stroke-width="1.51"/><path d="M570,134L506,196L670,248Z" fill="#eeeeef" stroke="#eeeeef" stroke-width="1.51"/><path d="M506,196L514,361L670,248Z" fill="#ededee" stroke="#ededee" stroke-width="1.51"/><path d="M-199,-101L-3,-135L138,-189Z" fill="#fbfbfb" stroke="#fbfbfb" stroke-width="1.51"/><path d="M549,-64L462,71L570,134Z" fill="#f1f2f2" stroke="#f1f2f2" stroke-width="1.51"/><path d="M581,673L551,845L636,807Z" fill="#e4e4e5" stroke="#e4e4e5" stroke-width="1.51"/><path d="M551,845L575,897L636,807Z" fill="#e3e3e4" stroke="#e3e3e4" stroke-width="1.51"/><path d="M581,673L634,675L639,615Z" fill="#e6e6e7" stroke="#e6e6e7" stroke-width="1.51"/><path d="M543,534L581,673L639,615Z" fill="#e7e7e8" stroke="#e7e7e8" stroke-width="1.51"/><path d="M478,681L551,845L581,673Z" fill="#e5e6e7" stroke="#e5e6e7" stroke-width="1.51"/><path d="M492,-89L549,-64L614,-128Z" fill="#f3f3f3" stroke="#f3f3f3" stroke-width="1.51"/><path d="M37,942L-52,995L397,969Z" fill="#e6e7e7" stroke="#e6e7e7" stroke-width="1.51"/><path d="M478,681L457,866L551,845Z" fill="#e5e5e6" stroke="#e5e5e6" stroke-width="1.51"/><path d="M457,866L397,969L575,897Z" fill="#e3e4e4" stroke="#e3e4e4" stroke-width="1.51"/><path d="M543,534L478,681L581,673Z" fill="#e7e7e8" stroke="#e7e7e8" stroke-width="1.51"/><path d="M551,845L457,866L575,897Z" fill="#e3e4e4" stroke="#e3e4e4" stroke-width="1.51"/><path d="M492,-89L462,71L549,-64Z" fill="#f3f3f3" stroke="#f3f3f3" stroke-width="1.51"/><path d="M462,71L506,196L570,134Z" fill="#eff0f0" stroke="#eff0f0" stroke-width="1.51"/><path d="M411,23L462,71L492,-89Z" fill="#f3f3f3" stroke="#f3f3f3" stroke-width="1.51"/><path d="M506,196L412,194L514,361Z" fill="#eeefef" stroke="#eeefef" stroke-width="1.51"/><path d="M388,596L478,681L543,534Z" fill="#e8e9e9" stroke="#e8e9e9" stroke-width="1.51"/><path d="M518,409L360,509L543,534Z" fill="#eaebeb" stroke="#eaebeb" stroke-width="1.51"/><path d="M412,194L379,367L514,361Z" fill="#eeeeee" stroke="#eeeeee" stroke-width="1.51"/><path d="M360,509L388,596L543,534Z" fill="#e9eaeb" stroke="#e9eaeb" stroke-width="1.51"/><path d="M283,913L37,942L397,969Z" fill="#e5e6e7" stroke="#e5e6e7" stroke-width="1.51"/><path d="M344,768L457,866L478,681Z" fill="#e6e7e7" stroke="#e6e7e7" stroke-width="1.51"/><path d="M462,71L412,194L506,196Z" fill="#f0f0f1" stroke="#f0f0f1" stroke-width="1.51"/><path d="M514,361L379,367L518,409Z" fill="#eceded" stroke="#eceded" stroke-width="1.51"/><path d="M379,367L355,423L518,409Z" fill="#eceded" stroke="#eceded" stroke-width="1.51"/><path d="M355,423L360,509L518,409Z" fill="#ececed" stroke="#ececed" stroke-width="1.51"/><path d="M404,-92L411,23L492,-89Z" fill="#f4f4f4" stroke="#f4f4f4" stroke-width="1.51"/><path d="M388,596L344,768L478,681Z" fill="#e8e8e9" stroke="#e8e8e9" stroke-width="1.51"/><path d="M327,89L412,194L462,71Z" fill="#f1f2f2" stroke="#f1f2f2" stroke-width="1.51"/><path d="M411,23L327,89L462,71Z" fill="#f2f3f3" stroke="#f2f3f3" stroke-width="1.51"/><path d="M283,913L397,969L457,866Z" fill="#e4e5e5" stroke="#e4e5e5" stroke-width="1.51"/><path d="M344,768L283,913L457,866Z" fill="#e5e6e7" stroke="#e5e6e7" stroke-width="1.51"/><path d="M240,661L344,768L388,596Z" fill="#e9e9ea" stroke="#e9e9ea" stroke-width="1.51"/><path d="M404,-92L273,32L411,23Z" fill="#f4f5f5" stroke="#f4f5f5" stroke-width="1.51"/><path d="M241,282L379,367L412,194Z" fill="#eff0f0" stroke="#eff0f0" stroke-width="1.51"/><path d="M293,180L241,282L412,194Z" fill="#f1f1f1" stroke="#f1f1f1" stroke-width="1.51"/><path d="M327,89L293,180L412,194Z" fill="#f2f2f2" stroke="#f2f2f2" stroke-width="1.51"/><path d="M273,32L327,89L411,23Z" fill="#f3f4f4" stroke="#f3f4f4" stroke-width="1.51"/><path d="M256,594L240,661L388,596Z" fill="#eaebeb" stroke="#eaebeb" stroke-width="1.51"/><path d="M206,-79L273,32L404,-92Z" fill="#f6f6f6" stroke="#f6f6f6" stroke-width="1.51"/><path d="M247,-193L206,-79L404,-92Z" fill="#f7f7f7" stroke="#f7f7f7" stroke-width="1.51"/><path d="M360,509L256,594L388,596Z" fill="#ebebec" stroke="#ebebec" stroke-width="1.51"/><path d="M236,893L37,942L283,913Z" fill="#e6e7e8" stroke="#e6e7e8" stroke-width="1.51"/><path d="M211,368L355,423L379,367Z" fill="#eeeeef" stroke="#eeeeef" stroke-width="1.51"/><path d="M241,282L211,368L379,367Z" fill="#eff0f0" stroke="#eff0f0" stroke-width="1.51"/><path d="M236,893L283,913L344,768Z" fill="#e6e7e8" stroke="#e6e7e8" stroke-width="1.51"/><path d="M211,368L165,541L355,423Z" fill="#eeeeef" stroke="#eeeeef" stroke-width="1.51"/><path d="M355,423L165,541L360,509Z" fill="#eceded" stroke="#eceded" stroke-width="1.51"/><path d="M165,541L256,594L360,509Z" fill="#ececed" stroke="#ececed" stroke-width="1.51"/><path d="M191,834L236,893L344,768Z" fill="#e7e8e8" stroke="#e7e8e8" stroke-width="1.51"/><path d="M240,661L191,834L344,768Z" fill="#e8e9e9" stroke="#e8e9e9" stroke-width="1.51"/><path d="M142,429L165,541L211,368Z" fill="#efefef" stroke="#efefef" stroke-width="1.51"/><path d="M185,680L191,834L240,661Z" fill="#e9eaeb" stroke="#e9eaeb" stroke-width="1.51"/><path d="M273,32L293,180L327,89Z" fill="#f3f3f3" stroke="#f3f3f3" stroke-width="1.51"/><path d="M133,211L241,282L293,180Z" fill="#f2f2f2" stroke="#f2f2f2" stroke-width="1.51"/><path d="M273,32L134,65L293,180Z" fill="#f4f4f4" stroke="#f4f4f4" stroke-width="1.51"/><path d="M134,65L133,211L293,180Z" fill="#f4f4f4" stroke="#f4f4f4" stroke-width="1.51"/><path d="M100,113L133,211L134,65Z" fill="#f5f5f5" stroke="#f5f5f5" stroke-width="1.51"/><path d="M206,-79L134,65L273,32Z" fill="#f6f6f6" stroke="#f6f6f6" stroke-width="1.51"/><path d="M138,-189L206,-79L247,-193Z" fill="#f8f8f9" stroke="#f8f8f9" stroke-width="1.51"/><path d="M185,680L240,661L256,594Z" fill="#eaebeb" stroke="#eaebeb" stroke-width="1.51"/><path d="M165,541L185,680L256,594Z" fill="#ebeced" stroke="#ebeced" stroke-width="1.51"/><path d="M87,16L134,65L206,-79Z" fill="#f7f7f7" stroke="#f7f7f7" stroke-width="1.51"/><path d="M133,211L211,368L241,282Z" fill="#f1f2f2" stroke="#f1f2f2" stroke-width="1.51"/><path d="M191,834L37,942L236,893Z" fill="#e7e8e9" stroke="#e7e8e9" stroke-width="1.51"/><path d="M165,541L46,579L185,680Z" fill="#ededed" stroke="#ededed" stroke-width="1.51"/><path d="M185,680L31,807L191,834Z" fill="#eaeaea" stroke="#eaeaea" stroke-width="1.51"/><path d="M32,288L142,429L211,368Z" fill="#f1f1f1" stroke="#f1f1f1" stroke-width="1.51"/><path d="M133,211L32,288L211,368Z" fill="#f2f2f2" stroke="#f2f2f2" stroke-width="1.51"/><path d="M138,-189L26,-134L206,-79Z" fill="#f9f9f9" stroke="#f9f9f9" stroke-width="1.51"/><path d="M26,-134L87,16L206,-79Z" fill="#f8f8f9" stroke="#f8f8f9" stroke-width="1.51"/><path d="M15,675L31,807L185,680Z" fill="#ebebec" stroke="#ebebec" stroke-width="1.51"/><path d="M31,807L37,942L191,834Z" fill="#e9e9e9" stroke="#e9e9e9" stroke-width="1.51"/><path d="M46,579L15,675L185,680Z" fill="#eceded" stroke="#eceded" stroke-width="1.51"/><path d="M100,113L79,195L133,211Z" fill="#f4f4f5" stroke="#f4f4f5" stroke-width="1.51"/><path d="M-3,-135L26,-134L138,-189Z" fill="#fafafa" stroke="#fafafa" stroke-width="1.51"/><path d="M20,428L46,579L142,429Z" fill="#eff0f0" stroke="#eff0f0" stroke-width="1.51"/><path d="M32,288L20,428L142,429Z" fill="#f1f1f2" stroke="#f1f1f2" stroke-width="1.51"/><path d="M142,429L46,579L165,541Z" fill="#eeeeef" stroke="#eeeeef" stroke-width="1.51"/><path d="M79,195L32,288L133,211Z" fill="#f3f3f4" stroke="#f3f3f4" stroke-width="1.51"/><path d="M87,16L100,113L134,65Z" fill="#f6f6f6" stroke="#f6f6f6" stroke-width="1.51"/><path d="M26,-134L-45,-20L87,16Z" fill="#f9f9f9" stroke="#f9f9f9" stroke-width="1.51"/><path d="M87,16L-30,89L100,113Z" fill="#f7f7f7" stroke="#f7f7f7" stroke-width="1.51"/><path d="M-30,89L79,195L100,113Z" fill="#f6f6f6" stroke="#f6f6f6" stroke-width="1.51"/><path d="M-30,89L-59,182L79,195Z" fill="#f6f6f6" stroke="#f6f6f6" stroke-width="1.51"/><path d="M-45,-20L-30,89L87,16Z" fill="#f8f8f8" stroke="#f8f8f8" stroke-width="1.51"/><path d="M-3,-135L-45,-20L26,-134Z" fill="#fafafb" stroke="#fafafb" stroke-width="1.51"/><path d="M-38,410L20,428L32,288Z" fill="#f2f2f2" stroke="#f2f2f2" stroke-width="1.51"/><path d="M-59,182L32,288L79,195Z" fill="#f4f5f5" stroke="#f4f5f5" stroke-width="1.51"/><path d="M-38,410L-110,538L20,428Z" fill="#f1f1f1" stroke="#f1f1f1" stroke-width="1.51"/><path d="M15,675L-77,750L31,807Z" fill="#ececed" stroke="#ececed" stroke-width="1.51"/><path d="M-104,330L-38,410L32,288Z" fill="#f3f3f3" stroke="#f3f3f3" stroke-width="1.51"/><path d="M31,807L-104,876L37,942Z" fill="#e9eaeb" stroke="#e9eaeb" stroke-width="1.51"/><path d="M20,428L-110,538L46,579Z" fill="#eff0f1" stroke="#eff0f1" stroke-width="1.51"/><path d="M-110,538L15,675L46,579Z" fill="#eeefef" stroke="#eeefef" stroke-width="1.51"/><path d="M-104,876L-52,995L37,942Z" fill="#e9e9ea" stroke="#e9e9ea" stroke-width="1.51"/><path d="M-77,750L-104,876L31,807Z" fill="#ebebec" stroke="#ebebec" stroke-width="1.51"/><path d="M-59,182L-104,330L32,288Z" fill="#f4f4f5" stroke="#f4f4f5" stroke-width="1.51"/><path d="M-110,538L-77,750L15,675Z" fill="#eeeeef" stroke="#eeeeef" stroke-width="1.51"/><path d="M-199,-101L-45,-20L-3,-135Z" fill="#fbfbfb" stroke="#fbfbfb" stroke-width="1.51"/><path d="M-110,538L-224,677L-77,750Z" fill="#efeff0" stroke="#efeff0" stroke-width="1.51"/><path d="M-104,876L-149,989L-52,995Z" fill="#eaeaea" stroke="#eaeaea" stroke-width="1.51"/><path d="M-228,147L-59,182L-30,89Z" fill="#f7f8f8" stroke="#f7f8f8" stroke-width="1.51"/><path d="M-203,25L-228,147L-30,89Z" fill="#f9f9f9" stroke="#f9f9f9" stroke-width="1.51"/><path d="M-45,-20L-203,25L-30,89Z" fill="#f9f9f9" stroke="#f9f9f9" stroke-width="1.51"/><path d="M-104,330L-234,443L-38,410Z" fill="#f3f3f4" stroke="#f3f3f4" stroke-width="1.51"/><path d="M-234,443L-110,538L-38,410Z" fill="#f2f2f2" stroke="#f2f2f2" stroke-width="1.51"/><path d="M-231,233L-104,330L-59,182Z" fill="#f6f6f6" stroke="#f6f6f6" stroke-width="1.51"/><path d="M-199,-101L-203,25L-45,-20Z" fill="#fbfbfb" stroke="#fbfbfb" stroke-width="1.51"/><path d="M-222,358L-234,443L-104,330Z" fill="#f4f5f5" stroke="#f4f5f5" stroke-width="1.51"/><path d="M-193,774L-104,876L-77,750Z" fill="#eceded" stroke="#eceded" stroke-width="1.51"/><path d="M-228,147L-231,233L-59,182Z" fill="#f7f7f7" stroke="#f7f7f7" stroke-width="1.51"/><path d="M-226,546L-224,677L-110,538Z" fill="#f1f1f1" stroke="#f1f1f1" stroke-width="1.51"/><path d="M-224,677L-193,774L-77,750Z" fill="#eeeeef" stroke="#eeeeef" stroke-width="1.51"/><path d="M-234,443L-226,546L-110,538Z" fill="#f2f2f3" stroke="#f2f2f3" stroke-width="1.51"/><path d="M-231,233L-222,358L-104,330Z" fill="#f6f6f6" stroke="#f6f6f6" stroke-width="1.51"/><path d="M-193,774L-149,989L-104,876Z" fill="#ebecec" stroke="#ebecec" stroke-width="1.51"/><path d="M-193,774L-224,677L-149,989Z" fill="#ededee" stroke="#ededee" stroke-width="1.51"/><path d="M-228,147L-203,25L-199,-101Z" fill="#fafafb" stroke="#fafafb" stroke-width="1.51"/><path d="M-231,233L-234,443L-222,358Z" fill="#f5f6f6" stroke="#f5f6f6" stroke-width="1.51"/><path d="M-226,546L-234,443L-224,677Z" fill="#f2f2f2" stroke="#f2f2f2" stroke-width="1.51"/></svg>